# xmcd
#
# Track frame offsets:
# 150
# 25953
# 47385
# 63576
# 86917
# 106674
# 128073
# 167875
# 205520
# 231859
# 254891
# 278397
# 298046
# 321991
#
# Disc length: 4617 seconds
#
#
# Revision: 0
# Processed by: cddbd v1.5.2PL0 Copyright (c) Steve Scherf et al.
# Submitted via: FreeRIP 2.96 
#
DISCID=c712070e
DTITLE=Douglas Preston und Lincoln Child - Relic - Museum der Angst CD6
DYEAR=2006
DGENRE=Speech
TTITLE0=62 Relic
TTITLE1=63 Relic
TTITLE2=64 Relic
TTITLE3=65 Relic
TTITLE4=66 Relic
TTITLE5=67 Relic
TTITLE6=68 Relic
TTITLE7=69 Relic
TTITLE8=70 Relic
TTITLE9=71 Relic
TTITLE10=72 Relic
TTITLE11=73 Relic
TTITLE12=74 Relic
TTITLE13=75 Relic
EXTD=gelesen von Thomas Piper
EXTT0=
EXTT1=
EXTT2=
EXTT3=
EXTT4=
EXTT5=
EXTT6=
EXTT7=
EXTT8=
EXTT9=
EXTT10=
EXTT11=
EXTT12=
EXTT13=
PLAYORDER=
